<?xml version="1.0" standalone="no"?>
<!DOCTYPE svg PUBLIC "-//W3C//DTD SVG 20010904//EN"
 "http://www.w3.org/TR/2001/REC-SVG-20010904/DTD/svg10.dtd">
<svg version="1.0" xmlns="http://www.w3.org/2000/svg"
 width="791.000000pt" height="790.000000pt" viewBox="0 0 791.000000 790.000000"
 preserveAspectRatio="xMidYMid meet">
<metadata>
Created by potrace 1.16, written by Peter Selinger 2001-2019
</metadata>
<g transform="translate(0.000000,790.000000) scale(0.100000,-0.100000)"
fill="#000000" stroke="none">
<path d="M3455 7368 c-371 -20 -738 -112 -1081 -273 -87 -40 -284 -151 -284
-159 0 -2 58 22 129 54 512 232 1017 344 1626 361 l50 2 -65 7 c-100 13 -243
16 -375 8z"/>
<path d="M3490 7150 c-584 -58 -1156 -289 -1620 -656 -97 -77 -361 -336 -380
-374 -8 -16 11 -2 51 36 407 388 959 688 1535 833 477 120 1025 136 1618 45
68 -10 -12 14 -144 44 -259 59 -388 74 -695 77 -154 2 -318 0 -365 -5z"/>
<path d="M3620 6925 c-372 -41 -740 -150 -1075 -318 -908 -454 -1551 -1315
-1724 -2307 -37 -211 -45 -313 -45 -560 1 -423 59 -746 205 -1138 46 -123 163
-373 217 -460 20 -34 20 -34 0 -95 l-20 -62 70 -142 c39 -77 75 -144 80 -147
5 -3 40 4 78 16 l68 20 60 -68 c107 -124 339 -347 456 -438 504 -392 1059
-613 1693 -677 177 -17 576 -7 752 20 521 81 983 266 1395 561 162 116 265
204 415 354 437 438 742 1004 864 1602 52 254 64 382 64 659 0 247 -9 357 -47
570 -78 433 -263 880 -516 1248 -156 224 -420 508 -629 675 -481 385 -1055
622 -1661 687 -165 18 -539 18 -700 0z m755 -125 c246 -37 464 -92 675 -171
117 -44 450 -205 450 -218 0 -4 -39 -13 -87 -20 -204 -28 -475 -106 -722 -208
-451 -187 -813 -424 -1131 -743 -194 -194 -285 -316 -465 -625 -244 -420 -568
-778 -915 -1010 -116 -77 -292 -162 -364 -174 -256 -46 -440 59 -571 324 -88
179 -145 422 -167 712 l-12 152 34 83 c425 1045 1367 1769 2475 1902 188 23
198 23 440 20 160 -2 258 -9 360 -24z m1349 -469 c25 -33 46 -61 46 -64 0 -2
-48 -7 -107 -10 -120 -7 -340 -45 -479 -82 -457 -124 -863 -329 -1234 -624
-127 -100 -416 -391 -519 -521 -89 -112 -104 -134 -226 -330 -42 -69 -119
-183 -170 -255 -382 -536 -748 -858 -1091 -961 -125 -37 -285 -40 -394 -5
-265 83 -460 324 -580 716 -57 187 -57 180 -8 423 l43 217 7 -105 c50 -776
317 -1202 732 -1167 472 41 1008 529 1427 1300 194 357 561 721 999 989 323
199 697 354 1085 452 151 38 354 80 406 85 9 0 37 -26 63 -58z m194 -208 c808
-663 1222 -1700 1096 -2743 -69 -572 -297 -1116 -652 -1556 -129 -159 -149
-178 -237 -217 -390 -171 -838 -224 -1321 -156 -274 38 -410 71 -754 184 -532
174 -869 246 -1215 261 -449 19 -758 -95 -947 -348 -32 -44 -36 -46 -55 -33
-26 19 -223 232 -223 243 0 9 172 57 265 73 39 7 74 16 79 20 18 16 -99 39
-198 39 -114 0 -196 -16 -310 -61 -43 -17 -81 -27 -85 -22 -3 5 -34 49 -67 99
l-62 90 19 94 c10 52 22 110 25 127 4 22 3 33 -5 33 -13 0 -107 186 -166 329
-155 379 -225 744 -225 1170 0 185 22 485 36 500 12 13 14 -14 4 -70 -17 -100
-24 -402 -11 -503 6 -49 19 -102 29 -120 26 -45 95 -93 159 -112 60 -18 251
-21 328 -6 37 7 115 -5 115 -18 0 -9 -93 -68 -135 -85 -22 -9 -78 -27 -125
-40 -101 -28 -66 -33 61 -9 88 17 192 59 245 99 29 22 43 25 116 25 157 0 320
49 477 144 41 25 73 36 121 41 159 16 552 113 582 144 5 4 -41 -5 -101 -21
-105 -26 -242 -49 -381 -63 l-65 -7 85 64 c61 45 113 75 185 102 301 116 589
252 789 372 l125 75 36 75 c49 103 120 318 146 444 19 88 23 140 24 318 l2
213 89 80 c337 305 798 564 1245 699 235 70 493 117 667 119 l84 1 106 -87z
m-2254 -962 c6 -60 -4 -222 -20 -321 -21 -128 -96 -367 -147 -470 -29 -60 -39
-69 -112 -114 -163 -100 -581 -302 -705 -341 -17 -5 14 32 95 116 66 68 158
172 204 231 l84 107 29 -24 c40 -34 94 -47 141 -34 80 22 124 90 114 176 -6
54 -31 91 -78 117 l-35 19 81 142 c45 78 108 181 141 228 57 83 183 235 195
236 4 1 9 -30 13 -68z m-2664 -1178 c12 -38 39 -100 60 -138 l37 -71 -19 -34
c-23 -42 -19 -101 10 -139 27 -37 90 -58 139 -45 34 9 42 7 80 -19 23 -17 40
-34 36 -40 -3 -6 -47 -8 -109 -5 -90 4 -111 9 -160 34 -86 44 -92 57 -103 212
-8 112 -5 312 5 312 1 0 12 -30 24 -67z m2205 -2172 c192 -34 361 -80 908
-245 756 -228 1220 -260 1736 -120 95 26 291 99 364 135 20 11 37 17 37 14 0
-3 -71 -61 -157 -130 l-157 -124 -90 -21 c-605 -136 -1319 -64 -2026 204 -198
76 -327 116 -475 150 -542 122 -1041 52 -1276 -179 -58 -57 -80 -94 -88 -148
l-6 -38 -62 45 c-33 25 -64 49 -67 54 -12 19 51 120 114 183 138 138 325 212
606 238 167 16 501 6 639 -18z m-82 -156 c87 -13 231 -42 320 -64 150 -37 229
-60 672 -201 402 -127 720 -180 1086 -180 195 0 325 11 475 39 54 11 101 18
102 16 6 -6 -230 -160 -334 -218 -341 -191 -750 -320 -1144 -362 -158 -17
-493 -19 -641 -5 -375 38 -755 148 -1092 316 -171 86 -377 217 -504 321 l-43
34 22 42 c33 67 133 157 218 199 86 41 207 75 319 88 121 14 368 3 544 -25z"/>
<path d="M2531 4728 c-207 -390 -284 -512 -359 -570 -78 -61 -131 -18 -188
152 -22 68 -30 44 -14 -47 15 -91 36 -138 78 -174 31 -28 41 -31 83 -27 122
12 273 204 411 523 55 125 141 380 136 402 -2 8 -68 -108 -147 -259z"/>
<path d="M1270 4448 c0 -20 60 -172 100 -253 91 -185 195 -295 278 -295 88 0
145 151 113 295 -6 27 -8 23 -24 -40 -26 -100 -62 -175 -84 -175 -39 1 -101
74 -252 298 -87 129 -131 186 -131 170z"/>
<path d="M4580 4843 c-470 -163 -602 -212 -576 -213 12 0 295 73 563 146 l202
55 53 -33 c207 -125 364 -264 420 -371 20 -37 23 -39 26 -19 5 31 -23 110 -59
168 -40 64 -140 166 -209 214 -58 39 -181 104 -215 112 -11 3 -103 -23 -205
-59z"/>
<path d="M3798 4550 c-4 -8 -18 -44 -32 -80 -14 -36 -47 -117 -74 -180 l-50
-115 -169 -92 c-226 -123 -245 -134 -240 -139 3 -3 190 73 418 170 30 13 42
29 81 108 57 114 80 200 76 281 -2 34 -6 55 -10 47z"/>
<path d="M4501 4449 c-124 -24 -270 -95 -406 -196 -53 -39 -186 -163 -325
-304 -300 -303 -432 -424 -697 -637 -368 -297 -777 -546 -1028 -627 -192 -62
-416 -39 -620 63 -72 36 -209 124 -220 141 -3 6 -20 20 -38 32 -27 19 -25 15
13 -25 101 -106 305 -218 466 -257 120 -29 268 -29 382 0 300 77 801 380 1282
775 196 161 307 262 565 516 127 124 255 244 286 268 147 111 305 184 431 198
l56 7 48 -74 c106 -166 202 -384 254 -583 43 -164 54 -253 55 -431 0 -260 -44
-443 -166 -690 -38 -77 -75 -148 -83 -157 -12 -17 -23 -16 -202 12 -226 35
-465 63 -749 86 -290 24 -829 24 -1048 1 -488 -53 -873 -173 -1127 -352 l-77
-53 -23 74 c-16 51 -20 78 -13 85 14 14 470 184 664 247 445 146 843 241 1191
283 101 13 188 27 194 31 18 13 72 220 87 331 8 53 16 99 18 102 3 2 56 -91
119 -208 224 -417 252 -468 255 -465 2 2 13 46 24 98 100 479 171 819 171 826
0 24 27 -31 105 -216 141 -334 208 -475 217 -453 10 27 120 623 116 634 -2 5
-28 -84 -58 -198 -30 -115 -59 -226 -66 -248 l-12 -40 -12 30 c-6 17 -77 185
-158 374 -118 278 -148 339 -154 320 -4 -13 -48 -222 -98 -464 -107 -520 -98
-482 -115 -458 -7 10 -100 180 -206 378 l-194 360 -6 -185 c-6 -186 -19 -273
-60 -406 -20 -63 -20 -64 -56 -64 -102 0 -448 -61 -733 -129 -335 -80 -882
-260 -1154 -381 -111 -49 -186 -64 -201 -41 -3 6 -30 101 -60 213 -29 112 -54
199 -54 193 -1 -10 22 -146 57 -343 11 -61 25 -108 33 -113 8 -5 38 -9 67 -9
47 0 52 -2 52 -22 0 -12 10 -50 22 -85 l21 -64 -51 -52 c-29 -29 -52 -56 -52
-60 0 -4 28 16 63 44 231 188 603 320 1067 379 558 70 1408 48 2068 -54 l144
-22 34 53 c148 232 243 554 244 825 1 341 -126 747 -328 1052 -26 39 -49 75
-51 80 -5 13 77 -3 139 -26 81 -31 152 -82 220 -155 70 -77 78 -70 17 13 -137
185 -332 265 -546 223z"/>
<path d="M2465 3164 c-308 -186 -590 -255 -819 -200 -38 9 -71 14 -73 12 -9
-9 205 -116 262 -131 113 -29 227 -14 345 45 53 27 145 95 188 139 104 106
165 171 161 171 -2 0 -31 -16 -64 -36z"/>
<path d="M5496 2793 c36 -218 2 -467 -83 -612 -74 -126 -234 -242 -455 -330
-86 -35 -74 -45 45 -38 218 11 380 112 476 297 64 121 83 209 84 370 0 133
-10 205 -48 338 -23 77 -33 63 -19 -25z"/>
<path d="M6962 2169 c-42 -76 -198 -320 -255 -398 -237 -329 -545 -635 -858
-853 -194 -135 -482 -288 -692 -369 -115 -43 -114 -48 5 -20 541 127 1122 532
1478 1031 127 178 254 405 324 578 26 67 26 81 -2 31z"/>
</g>
</svg>
